<?xml version="1.0" standalone="no"?><!DOCTYPE svg PUBLIC "-//W3C//DTD SVG 1.1//EN" "http://www.w3.org/Graphics/SVG/1.1/DTD/svg11.dtd"><svg t="1647072379939" class="icon" viewBox="0 0 1024 1024" version="1.1" xmlns="http://www.w3.org/2000/svg" p-id="42629" xmlns:xlink="http://www.w3.org/1999/xlink" width="200" height="200"><defs><style type="text/css"></style></defs><path d="M807.3216 961.2288H221.696c-62.464 0-113.1008-48.9984-113.1008-109.4144V418.7136c0-32.6144 15.0528-63.5392 41.0112-84.3264L442.368 99.9424c41.8304-33.4848 102.3488-33.4848 144.1792 0l292.8128 234.4448c25.9584 20.7872 41.0112 51.712 41.0112 84.3264v433.0496c0.0512 60.4672-50.5856 109.4656-113.0496 109.4656z" fill="#F85F69" p-id="42630"></path><path d="M657.6128 961.2288H371.3536v-297.8816c0-28.3648 22.9888-51.3536 51.3536-51.3536h183.5008c28.3648 0 51.3536 22.9888 51.3536 51.3536v297.8816z" fill="#F33B3D" p-id="42631"></path><path d="M640.2048 475.392h-251.392c-22.6304 0-40.96-18.3296-40.96-40.96s18.3296-40.96 40.96-40.96h251.392c22.6304 0 40.96 18.3296 40.96 40.96s-18.3808 40.96-40.96 40.96z" fill="#FFFFFF" p-id="42632"></path></svg>